name rise34.3697peak60.0498fall86.3158.mot
datacolumns 19
datarows 21
range 13.81828300000000 13.85161300000000
endheader
time	ground_force1_vx	ground_force1_vy	ground_force1_vz	ground_force1_px	ground_force1_py	ground_force1_pz	ground_force2_vx	ground_force2_vy	ground_force2_vz	ground_force2_px	ground_force2_py	ground_force2_pz	ground_torque1_x	ground_torque1_y	ground_torque1_z	ground_torque2_x	ground_torque2_y	ground_torque2_z	
13.81828300000000	1.29817100000000	683.23182199999997	36.63335500000000	0.31232100000000	0.00000000000000	0.11150000000000	0.00000000000000	0.00000000000000	0.00000000000000	0.00000000000000	0.00000000000000	0.00000000000000	0.00000000000000	21.32841500000000	0.00000000000000	0.00000000000000	0.00000000000000	0.00000000000000	
13.81994400000000	0.93657800000000	683.74276399999997	36.67928300000000	0.31082400000000	0.00000000000000	0.11155100000000	0.00000000000000	0.00000000000000	0.00000000000000	0.00000000000000	0.00000000000000	0.00000000000000	0.00000000000000	21.39200600000000	0.00000000000000	0.00000000000000	0.00000000000000	0.00000000000000	
13.82161400000000	0.56630200000000	684.31401800000003	36.72953100000000	0.30934800000000	0.00000000000000	0.11160300000000	0.00000000000000	0.00000000000000	0.00000000000000	0.00000000000000	0.00000000000000	0.00000000000000	0.00000000000000	21.46222800000000	0.00000000000000	0.00000000000000	0.00000000000000	0.00000000000000	
13.82328300000000	0.18682300000000	684.94519600000001	36.78388600000000	0.30789300000000	0.00000000000000	0.11165400000000	0.00000000000000	0.00000000000000	0.00000000000000	0.00000000000000	0.00000000000000	0.00000000000000	0.00000000000000	21.53903900000000	0.00000000000000	0.00000000000000	0.00000000000000	0.00000000000000	
13.82494600000000	-0.20234900000000	685.63597800000002	36.84215400000000	0.30646200000000	0.00000000000000	0.11170600000000	0.00000000000000	0.00000000000000	0.00000000000000	0.00000000000000	0.00000000000000	0.00000000000000	0.00000000000000	21.62239700000000	0.00000000000000	0.00000000000000	0.00000000000000	0.00000000000000	
13.82661100000000	-0.60166800000000	686.38611600000002	36.90415800000000	0.30505500000000	0.00000000000000	0.11175700000000	0.00000000000000	0.00000000000000	0.00000000000000	0.00000000000000	0.00000000000000	0.00000000000000	0.00000000000000	21.71226300000000	0.00000000000000	0.00000000000000	0.00000000000000	0.00000000000000	
13.82828300000000	-1.01155400000000	687.19543799999997	36.96974500000000	0.30367200000000	0.00000000000000	0.11180800000000	0.00000000000000	0.00000000000000	0.00000000000000	0.00000000000000	0.00000000000000	0.00000000000000	0.00000000000000	21.80859800000000	0.00000000000000	0.00000000000000	0.00000000000000	0.00000000000000	
13.82994500000000	-1.43238600000000	688.06384000000003	37.03878100000000	0.30231500000000	0.00000000000000	0.11185900000000	0.00000000000000	0.00000000000000	0.00000000000000	0.00000000000000	0.00000000000000	0.00000000000000	0.00000000000000	21.91136600000000	0.00000000000000	0.00000000000000	0.00000000000000	0.00000000000000	
13.83161000000000	-1.86450600000000	688.99128900000005	37.11115100000000	0.30098600000000	0.00000000000000	0.11190900000000	0.00000000000000	0.00000000000000	0.00000000000000	0.00000000000000	0.00000000000000	0.00000000000000	0.00000000000000	22.02052800000000	0.00000000000000	0.00000000000000	0.00000000000000	0.00000000000000	
13.83328000000000	-2.30821200000000	689.97781699999996	37.18676200000000	0.29968300000000	0.00000000000000	0.11195900000000	0.00000000000000	0.00000000000000	0.00000000000000	0.00000000000000	0.00000000000000	0.00000000000000	0.00000000000000	22.13604700000000	0.00000000000000	0.00000000000000	0.00000000000000	0.00000000000000	
13.83494800000000	-2.76376100000000	691.02352199999996	37.26554100000000	0.29840800000000	0.00000000000000	0.11200800000000	0.00000000000000	0.00000000000000	0.00000000000000	0.00000000000000	0.00000000000000	0.00000000000000	0.00000000000000	22.25788200000000	0.00000000000000	0.00000000000000	0.00000000000000	0.00000000000000	
13.83661600000000	-3.23136300000000	692.12855700000000	37.34743600000000	0.29716200000000	0.00000000000000	0.11205700000000	0.00000000000000	0.00000000000000	0.00000000000000	0.00000000000000	0.00000000000000	0.00000000000000	0.00000000000000	22.38599300000000	0.00000000000000	0.00000000000000	0.00000000000000	0.00000000000000	
13.83828200000000	-3.71118200000000	693.29312900000002	37.43241400000000	0.29594500000000	0.00000000000000	0.11210500000000	0.00000000000000	0.00000000000000	0.00000000000000	0.00000000000000	0.00000000000000	0.00000000000000	0.00000000000000	22.52033400000000	0.00000000000000	0.00000000000000	0.00000000000000	0.00000000000000	
13.83994900000000	-4.20333500000000	694.51749299999994	37.52046300000000	0.29475800000000	0.00000000000000	0.11215200000000	0.00000000000000	0.00000000000000	0.00000000000000	0.00000000000000	0.00000000000000	0.00000000000000	0.00000000000000	22.66085900000000	0.00000000000000	0.00000000000000	0.00000000000000	0.00000000000000	
13.84161100000000	-4.70789400000000	695.80193999999995	37.61158800000000	0.29359900000000	0.00000000000000	0.11219800000000	0.00000000000000	0.00000000000000	0.00000000000000	0.00000000000000	0.00000000000000	0.00000000000000	0.00000000000000	22.80751600000000	0.00000000000000	0.00000000000000	0.00000000000000	0.00000000000000	
13.84328000000000	-5.22487700000000	697.14679599999999	37.70581500000000	0.29247100000000	0.00000000000000	0.11224300000000	0.00000000000000	0.00000000000000	0.00000000000000	0.00000000000000	0.00000000000000	0.00000000000000	0.00000000000000	22.96025000000000	0.00000000000000	0.00000000000000	0.00000000000000	0.00000000000000	
13.84494900000000	-5.75425900000000	698.55240800000001	37.80319000000000	0.29137300000000	0.00000000000000	0.11228800000000	0.00000000000000	0.00000000000000	0.00000000000000	0.00000000000000	0.00000000000000	0.00000000000000	0.00000000000000	23.11900000000000	0.00000000000000	0.00000000000000	0.00000000000000	0.00000000000000	
13.84661400000000	-6.29596100000000	700.01913700000000	37.90377300000000	0.29030400000000	0.00000000000000	0.11233100000000	0.00000000000000	0.00000000000000	0.00000000000000	0.00000000000000	0.00000000000000	0.00000000000000	0.00000000000000	23.28370200000000	0.00000000000000	0.00000000000000	0.00000000000000	0.00000000000000	
13.84828000000000	-6.84985800000000	701.54734900000005	38.00764600000000	0.28926600000000	0.00000000000000	0.11237300000000	0.00000000000000	0.00000000000000	0.00000000000000	0.00000000000000	0.00000000000000	0.00000000000000	0.00000000000000	23.45428400000000	0.00000000000000	0.00000000000000	0.00000000000000	0.00000000000000	
13.84994500000000	-7.41577500000000	703.13740199999995	38.11490400000000	0.28825700000000	0.00000000000000	0.11241500000000	0.00000000000000	0.00000000000000	0.00000000000000	0.00000000000000	0.00000000000000	0.00000000000000	0.00000000000000	23.63067000000000	0.00000000000000	0.00000000000000	0.00000000000000	0.00000000000000	
13.85161300000000	-7.99348700000000	704.78963799999997	38.22566000000000	0.28727800000000	0.00000000000000	0.11245500000000	0.00000000000000	0.00000000000000	0.00000000000000	0.00000000000000	0.00000000000000	0.00000000000000	0.00000000000000	23.81277600000000	0.00000000000000	0.00000000000000	0.00000000000000	0.00000000000000	
